<?xml version="1.0" encoding="utf-8"?>
<!-- Generator: Adobe Illustrator 21.1.0, SVG Export Plug-In . SVG Version: 6.00 Build 0)  -->
<svg version="1.1" id="Layer_1" xmlns="http://www.w3.org/2000/svg" xmlns:xlink="http://www.w3.org/1999/xlink" x="0px" y="0px"
	 viewBox="0 0 523 537" style="enable-background:new 0 0 523 537;" xml:space="preserve">
<style type="text/css">
	.st0{fill:#FFFFFF;}
	.st1{fill:none;stroke:#FF0000;stroke-width:10;stroke-miterlimit:10;}
</style>
<g>
	<g>
		<path class="st0" d="M519.3,507.7c-171.2,0-342.4,0-513.5,0c0-167,0-334,0-500.9c171.2,0,342.4,0,513.5,0
			C519.3,173.8,519.3,340.8,519.3,507.7z M7.2,460.7c1.9,1.5,3.7,3,5.6,4.4c11.5,8.4,23.2,16.6,34.6,25.1c3.9,2.9,7.4,3.9,11.9,1.5
			c5.3-2.8,10.7-5.3,16.3-7.5c15.4-6,31-11.5,46.4-17.6c17.5-6.9,34.8-14.2,52.3-21.2c8-3.2,16.1-6,24.1-9.2
			c22.1-8.9,44.1-18,66.3-26.8c16.9-6.7,34-13,51-19.2c1.7-0.6,4.6-0.2,6,0.8c11.4,8.3,22.6,16.8,33.8,25.3
			c13.7,10.4,27.7,20.4,40.8,31.4c18.2,15.3,39.1,25.4,61.1,33.6c5.2,1.9,10.6,3.1,15.8,4.8c6.5,2,12.8,4.9,19.4,6.1
			c6.1,1.1,12.5,1,18.7,0.6c4.4-0.3,7.1-3.7,6.7-8.2c-0.3-4.3-0.6-9.1-2.8-12.6c-7.9-12.4-16-24.8-25-36.4
			c-7.5-9.7-15.3-19.7-24.9-27.2c-18.7-14.7-38.6-27.9-58.3-41.4c-14.6-10-29.6-19.3-44.3-29.1c-1.7-1.1-3.3-3.9-3.2-5.8
			c0.6-16.9,1.7-33.7,2.5-50.5c1.4-30.9,2.7-61.9,3.9-92.9c0.8-19.8,1.4-39.6,2.1-59.3c0.3-8.9,0.8-17.8,1.2-26.7
			c0.9-19.3,1.8-38.6,2.4-57.8c0.1-2-1.4-4.8-3-6.1c-13.4-10-27-19.6-40.6-29.4c-0.7-0.5-1.7-0.6-3.2-1.2
			c-20.6,88.1-41,175.8-61.7,264.3c-2.6-1.6-4.1-2.5-5.5-3.5c-11.4-7.7-22.8-15.5-34.2-23.1c-21.3-14.3-42.5-28.6-63.8-42.9
			c-6.3-4.2-13-8-19.2-12.4c-1.6-1.1-2.9-3.9-2.9-5.9c0.6-21.7,1.6-43.4,2.2-65.2c0.1-2.3-1.6-5.2-3.4-6.8
			c-4.9-4.4-10.2-8.5-15.6-12.3c-5-3.5-10.2-6.7-16.1-10.4c-0.8,3.2-1.5,5.6-2,8.1c-5,25.3-10.3,50.6-14.8,76
			c-1.2,6.6-4.5,9.9-10,13c-23.3,13.4-46.5,27.1-69.7,40.8c-0.6,0.4-1,1.1-1.6,1.8c0.5,0.7,0.8,1.3,1.3,1.7
			c9.5,6.8,19,13.6,28.5,20.4c2.8,2,5.7,2.2,9.1,0.9c19.3-7.6,38.8-14.9,58.2-22.4c3.3-1.3,6-1.2,9,1.1
			c14.1,10.8,28.5,21.4,42.7,32.2c22.8,17.4,45.6,34.9,68.3,52.4c4.2,3.2,4.1,3.9-0.4,6.8c-12.9,8.2-25.7,16.3-38.6,24.5
			c-15.5,9.8-30.9,19.7-46.4,29.4c-24.6,15.4-49.2,30.8-73.8,46.2c-9.5,5.9-19.3,11.4-28.7,17.4c-9.4,6-18.6,12.4-27.9,18.6
			C7.9,459.3,7.8,459.9,7.2,460.7z"/>
		<path d="M7.2,460.7c0.5-0.9,0.7-1.4,1-1.7c9.3-6.2,18.5-12.6,27.9-18.6c9.4-6,19.2-11.5,28.7-17.4c24.6-15.3,49.3-30.7,73.8-46.2
			c15.5-9.7,30.9-19.6,46.4-29.4c12.9-8.2,25.7-16.3,38.6-24.5c4.6-2.9,4.7-3.5,0.4-6.8c-22.8-17.5-45.5-35-68.3-52.4
			c-14.2-10.8-28.5-21.4-42.7-32.2c-3-2.3-5.7-2.4-9-1.1C84.8,238.1,65.3,245.4,46,253c-3.4,1.3-6.3,1.1-9.1-0.9
			c-9.5-6.8-19-13.6-28.5-20.4c-0.5-0.3-0.8-1-1.3-1.7c0.6-0.7,0.9-1.5,1.6-1.8c23.2-13.7,46.3-27.4,69.7-40.8
			c5.4-3.1,8.8-6.4,10-13c4.6-25.4,9.8-50.7,14.8-76c0.5-2.5,1.2-4.9,2-8.1c5.9,3.8,11.1,6.9,16.1,10.4c5.4,3.9,10.7,7.9,15.6,12.3
			c1.8,1.6,3.5,4.5,3.4,6.8c-0.5,21.7-1.6,43.4-2.2,65.2c-0.1,2,1.3,4.7,2.9,5.9c6.2,4.4,12.9,8.2,19.2,12.4
			c21.3,14.2,42.6,28.5,63.8,42.9c11.4,7.7,22.8,15.4,34.2,23.1c1.4,1,3,1.9,5.5,3.5c20.6-88.5,41.1-176.2,61.7-264.3
			c1.5,0.5,2.5,0.7,3.2,1.2c13.6,9.7,27.2,19.4,40.6,29.4c1.6,1.2,3.1,4,3,6.1c-0.6,19.3-1.6,38.6-2.4,57.8
			c-0.4,8.9-0.9,17.8-1.2,26.7c-0.7,19.8-1.3,39.6-2.1,59.3c-1.2,31-2.6,61.9-3.9,92.9c-0.8,16.8-1.9,33.7-2.5,50.5
			c-0.1,1.9,1.5,4.7,3.2,5.8c14.7,9.9,29.7,19.1,44.3,29.1c19.7,13.5,39.5,26.7,58.3,41.4c9.5,7.5,17.4,17.5,24.9,27.2
			c9,11.6,17.1,23.9,25,36.4c2.2,3.4,2.4,8.3,2.8,12.6c0.3,4.4-2.4,7.9-6.7,8.2c-6.2,0.4-12.7,0.5-18.7-0.6
			c-6.6-1.2-12.9-4.1-19.4-6.1c-5.3-1.7-10.7-2.9-15.8-4.8c-22-8.2-42.9-18.3-61.1-33.6c-13.1-11-27.1-21-40.8-31.4
			c-11.2-8.5-22.4-17.1-33.8-25.3c-1.5-1.1-4.3-1.5-6-0.8c-17.1,6.2-34.1,12.5-51,19.2c-22.2,8.7-44.2,17.9-66.3,26.8
			c-8,3.2-16.1,6-24.1,9.2c-17.5,7-34.8,14.3-52.3,21.2c-15.4,6.1-31,11.6-46.4,17.6c-5.6,2.2-11,4.7-16.3,7.5
			c-4.5,2.4-8,1.5-11.9-1.5c-11.4-8.5-23.1-16.8-34.6-25.1C10.9,463.7,9.1,462.2,7.2,460.7z"/>
	</g>
</g>
<line class="st1" x1="404.2" y1="517.9" x2="139.3" y2="59"/>
</svg>
