<?xml version="1.0" encoding="utf-8"?>
<!-- Generator: Adobe Illustrator 21.1.0, SVG Export Plug-In . SVG Version: 6.00 Build 0)  -->
<svg version="1.1" id="Layer_1" xmlns="http://www.w3.org/2000/svg" xmlns:xlink="http://www.w3.org/1999/xlink" x="0px" y="0px"
	 viewBox="0 0 523 537" style="enable-background:new 0 0 523 537;" xml:space="preserve">
<style type="text/css">
	.st0{fill:#FFFFFF;}
	.st1{fill:none;stroke:#FF0000;stroke-width:10;stroke-miterlimit:10;}
</style>
<g>
	<g>
		<path class="st0" d="M487,7c6.3,0,12.7,0,19,0c0,171,0,342,0,513c-166.7,0-333.3,0-500,0C6,349,6,178,6,7c157,0,314,0,471,0
			c-22.5,11.1-42.5,25.9-59.9,43.7c-11.3,11.6-21.4,24.7-30.7,38c-16.7,23.9-32.4,48.5-48.7,72.6c-1.3,2-4.3,4.2-6.5,4.1
			c-16.6-0.5-33.2-1.6-49.9-2.4c-31.3-1.4-62.5-2.8-93.8-4.1c-19.6-0.8-39.3-1.4-58.9-2.2c-8.5-0.3-17-0.8-25.4-1.2
			c-19.4-0.9-38.9-2-58.4-2.6c-2.5-0.1-5.8,1.7-7.3,3.7c-9.7,13-18.9,26.2-28.3,39.4c-0.6,0.9-1,2-1.9,3.9
			c88.2,20.5,175.8,41,264.2,61.6c-1.5,2.4-2.5,4.1-3.6,5.7c-20,30-39.9,59.9-59.9,89.9c-6,9-11.9,18.1-18.1,27
			c-1.2,1.7-3.9,3.2-5.9,3.2c-21.6-0.6-43.2-1.7-64.9-2.2c-2.5-0.1-5.8,1.7-7.4,3.7c-7.1,9.2-13.7,18.9-20.4,28.4
			c-0.5,0.7-0.7,1.7-1.2,3.2c2.6,0.6,4.8,1.3,7,1.7c26.3,5.3,52.6,10.7,78.9,15.9c3.6,0.7,5.8,2.2,7.7,5.4
			c13.8,23.8,27.8,47.4,41.8,71.1c0.9,1.5,2,2.8,3.7,5.3c1.1-1.7,1.7-2.7,2.4-3.6c6.5-9.1,12.9-18.2,19.5-27.2
			c2.5-3.3,2.6-6.3,1.1-10.1c-7.7-19.2-15-38.5-22.6-57.7c-1.4-3.6-1.2-6.4,1.3-9.6c6.4-7.9,12.4-16.1,18.6-24.2
			c21.9-28.8,43.8-57.5,65.8-86.3c3.5-4.6,4.1-4.5,7.2,0.5c9.3,14.8,18.5,29.7,27.8,44.5c33.3,53.1,66.6,106.2,99.9,159.2
			c2.8,4.5,5.7,8.8,9,13.8c1.6-1.9,2.7-3.1,3.7-4.4c9-12.6,17.9-25.3,27.1-37.8c2.3-3.2,2.7-5.9,1.2-9.6
			c-18.5-46.6-36.9-93.3-55.3-139.9c-15.4-38.9-30.7-77.8-46.1-116.7c-1.3-3.2-0.9-5.4,1.2-8.1c16-20.6,32-41.2,47.8-62
			c7.9-10.5,15.7-21.1,22.8-32.2c16.4-25.6,25.4-54.2,31.3-83.8C494,18,493.2,11.4,487,7z"/>
		<path d="M487,7c6.2,4.4,7,11,5.7,17.5c-5.9,29.6-14.8,58.2-31.3,83.8c-7.1,11.1-14.9,21.7-22.8,32.2c-15.7,20.8-31.7,41.4-47.8,62
			c-2.1,2.7-2.5,4.9-1.2,8.1c15.5,38.9,30.8,77.8,46.1,116.7c18.4,46.7,36.8,93.3,55.3,139.9c1.5,3.7,1.1,6.5-1.2,9.6
			c-9.1,12.5-18,25.2-27.1,37.8c-0.9,1.3-2.1,2.5-3.7,4.4c-3.2-5-6.2-9.3-9-13.8c-33.3-53.1-66.6-106.1-99.9-159.2
			c-9.3-14.8-18.5-29.7-27.8-44.5c-3.1-4.9-3.7-5-7.2-0.5c-21.9,28.7-43.8,57.5-65.8,86.3c-6.2,8.1-12.2,16.3-18.6,24.2
			c-2.6,3.2-2.8,6-1.3,9.6c7.6,19.2,15,38.5,22.6,57.7c1.5,3.8,1.4,6.8-1.1,10.1c-6.7,9-13,18.1-19.5,27.2c-0.7,0.9-1.3,1.9-2.4,3.6
			c-1.7-2.4-2.8-3.8-3.7-5.3c-14-23.7-28-47.3-41.8-71.1c-1.9-3.2-4.1-4.7-7.7-5.4c-26.3-5.2-52.6-10.6-78.9-15.9
			c-2.2-0.5-4.4-1.1-7-1.7c0.5-1.4,0.7-2.4,1.2-3.2c6.7-9.5,13.3-19.1,20.4-28.4c1.5-2,4.9-3.7,7.4-3.7c21.6,0.6,43.2,1.6,64.9,2.2
			c2,0.1,4.7-1.5,5.9-3.2c6.3-8.8,12.1-17.9,18.1-27c20-30,39.9-59.9,59.9-89.9c1.1-1.6,2.1-3.3,3.6-5.7
			c-88.4-20.6-176.1-41-264.2-61.6c0.9-1.9,1.3-3,1.9-3.9c9.4-13.2,18.6-26.4,28.3-39.4c1.5-2,4.9-3.8,7.3-3.7
			c19.5,0.6,38.9,1.6,58.4,2.6c8.5,0.4,17,0.8,25.4,1.2c19.6,0.7,39.3,1.4,58.9,2.2c31.3,1.3,62.5,2.6,93.8,4.1
			c16.6,0.8,33.2,1.9,49.9,2.4c2.2,0.1,5.1-2.1,6.5-4.1c16.3-24.2,32-48.8,48.7-72.6c9.3-13.3,19.4-26.4,30.7-38
			C434.5,32.9,454.5,18.1,477,7C480.3,7,483.7,7,487,7z"/>
	</g>
</g>
<line class="st1" x1="511" y1="172.3" x2="15.5" y2="359.9"/>
</svg>
